<svg clip-rule="evenodd" fill-rule="evenodd" stroke-linejoin="round" stroke-miterlimit="2" viewBox="0 0 510 510" xmlns="http://www.w3.org/2000/svg"><path d="m215.967 455.018c-40.229 1.863-81.092-12.492-111.647-43.048-44.082-44.082-46.742-98.284-29.499-154.98 24.818-81.601 91.566-168.48 128.075-235.276 1.227-2.246 3.583-3.643 6.142-3.643 2.56 0 4.915 1.397 6.143 3.643 28.513 52.175 85.056 126.996 115.859 201.661 8.984-7.686 19.874-13.008 31.682-15.313 17.985-3.51 36.629.268 51.828 10.503.003.002.006.004.008.006 15.2 10.235 25.711 26.089 29.222 44.075 3.51 17.985-.268 36.628-10.504 51.828l-99.053 147.096c-10.235 15.2-26.09 25.711-44.075 29.221s-38.327-1.411-51.836-10.508c-8.62-5.805-16.708-14.825-22.345-25.265zm190.771-224.835-.007-.005c-12.12-8.161-26.986-11.174-41.327-8.375s-26.983 11.18-35.144 23.3l-45.617 67.742 91.404 61.551 45.617-67.742c8.161-12.12 11.174-26.986 8.375-41.327s-11.181-26.982-23.301-35.144zm-129.915 94.275-45.617 67.741c-8.161 12.12-11.174 26.986-8.375 41.327s12.528 27.89 23.301 35.144c10.772 7.254 26.993 11.18 41.334 8.38 14.341-2.799 26.983-11.18 35.144-23.3l45.617-67.742zm-2.555 139.279c-5.438-3.663-6.88-11.051-3.218-16.49 3.662-5.438 11.051-6.88 16.489-3.218 5.439 3.662 6.881 11.051 3.219 16.489-3.663 5.439-11.051 6.881-16.49 3.219zm3.047-107.446c-4.697-3.163-5.942-9.544-2.779-14.241 3.162-4.697 9.543-5.942 14.24-2.78 4.697 3.163 5.943 9.544 2.78 14.241s-9.544 5.942-14.241 2.78zm-43.15 77.215c-3.708-2.497-4.692-7.535-2.195-11.243s7.535-4.691 11.243-2.194 4.691 7.535 2.194 11.243-7.534 4.691-11.242 2.194zm23.096-4.718c-4.696-3.162-5.942-9.543-2.779-14.24s9.544-5.943 14.241-2.78c4.696 3.163 5.942 9.544 2.779 14.241s-9.544 5.942-14.241 2.779zm-12.783-24.067c-5.439-3.662-6.881-11.05-3.219-16.489 3.663-5.438 11.051-6.88 16.49-3.218 5.438 3.662 6.88 11.051 3.218 16.489s-11.051 6.88-16.489 3.218zm50.215-18.937c-5.439-3.662-6.881-11.051-3.219-16.489 3.663-5.439 11.051-6.881 16.49-3.219 5.438 3.663 6.88 11.051 3.218 16.49-3.662 5.438-11.051 6.88-16.489 3.218zm-17.867 22.855c-3.708-2.497-4.691-7.535-2.194-11.243s7.534-4.691 11.242-2.194 4.692 7.534 2.195 11.242-7.535 4.692-11.243 2.195zm-13.595-30.212c-3.46-2.33-4.378-7.032-2.048-10.493 2.331-3.461 7.033-4.379 10.494-2.048 3.46 2.33 4.378 7.032 2.048 10.493-2.331 3.461-7.033 4.379-10.494 2.048zm37.17 36.829c-4.697-3.162-5.943-9.543-2.78-14.24s9.544-5.943 14.241-2.78 5.942 9.544 2.779 14.241c-3.162 4.697-9.543 5.942-14.24 2.779zm.42 32.422c-5.438-3.662-6.88-11.051-3.218-16.489 3.662-5.439 11.051-6.881 16.489-3.219s6.88 11.051 3.218 16.489c-3.662 5.439-11.05 6.881-16.489 3.219zm33.312-51.174c-5.439-3.662-6.881-11.051-3.218-16.489 3.662-5.438 11.05-6.88 16.489-3.218 5.438 3.662 6.88 11.05 3.218 16.489-3.662 5.438-11.051 6.88-16.489 3.218zm-9.129 26.772c-3.461-2.331-4.379-7.032-2.048-10.493 2.33-3.461 7.032-4.379 10.493-2.048 3.461 2.33 4.379 7.032 2.048 10.493-2.33 3.461-7.032 4.378-10.493 2.048zm-80.366 33.546c-3.708-2.497-4.691-7.535-2.194-11.243s7.535-4.691 11.243-2.194 4.691 7.534 2.194 11.242-7.535 4.692-11.243 2.195zm75.86-222.154c-27.922-71.077-80.864-142.817-111.438-195.337-37.055 64.46-97.62 145.371-120.844 221.733-15.672 51.528-14.061 100.942 26.003 141.006 26.393 26.394 61.284 39.423 96.064 39.103-.468-1.643-.867-3.3-1.192-4.965-3.511-17.986.267-36.629 10.503-51.828l99.053-147.097c.598-.888 1.215-1.76 1.851-2.615z"/></svg>