<svg height="512" viewBox="0 0 512 512" width="512" xmlns="http://www.w3.org/2000/svg"><g id="_26_Iron" data-name="26 Iron"><path d="m125.3915 217.7375h68.1329a19.9951 19.9951 0 0 1 19.9956 19.9951 19.9951 19.9951 0 0 1 -19.9951 19.9951h-40.7672a5.449 5.449 0 0 0 -5.4491 5.4491v28.2132a5.449 5.449 0 0 0 5.4491 5.4491h41.06a19.7021 19.7021 0 0 1 19.7023 19.7021 19.7021 19.7021 0 0 1 -19.7021 19.7021h-36.3179a10.1913 10.1913 0 0 0 -10.1913 10.1913v66.42a20.3613 20.3613 0 0 1 -20.3613 20.3613 20.3613 20.3613 0 0 1 -20.3613-20.3613v-176.3116a18.8056 18.8056 0 0 1 18.8054-18.8055z"/><path d="m397.649 365.1007h-111.7836a7.0406 7.0406 0 0 0 -6.5779 9.5173 40.9126 40.9126 0 0 0 12.3814 17.5091q12.085 10.0356 30.835 10.0342a53.05 53.05 0 0 0 30.7442-9.2682 18.39 18.39 0 0 1 18.2235-1.5023c12.7317 5.9784 14.3707 23.5631 2.8371 31.6138a72.6585 72.6585 0 0 1 -9.7639 5.7436q-17.5781 8.5693-41.748 8.5693-37.5012 0-61.084-23.6572-23.5861-23.655-23.584-59.2529 0-36.4746 23.5107-60.5713 23.5109-24.0945 58.96-24.0967 37.6454 0 61.2305 24.0967 23.5829 24.0981 23.584 63.6475a7.7665 7.7665 0 0 1 -7.765 7.6171zm-38.9684-31.4941a4.5311 4.5311 0 0 0 4.0213-6.5831 40.5884 40.5884 0 0 0 -13.0525-15.0966 45.3086 45.3086 0 0 0 -27.0723-8.35 47.8763 47.8763 0 0 0 -29.3449 9.375q-5.9916 4.4318-11.3121 13.971a4.5129 4.5129 0 0 0 3.9651 6.6833z"/><path d="m309.0765 83.9822a8.7049 8.7049 0 0 1 3.8449 11.7732l-10.7426 20.8473a2.9753 2.9753 0 0 0 2.29 4.2995 27.8615 27.8615 0 0 1 16.4447 8.4707q8.5674 8.7659 8.5681 21.78a30.1559 30.1559 0 0 1 -51.7032 20.9625q-8.6676-9.0586-8.6663-20.7663a31.3236 31.3236 0 0 1 1.3408-8.9606 90.565 90.565 0 0 1 6.1809-13.866l20.7974-40.7145a8.7049 8.7049 0 0 1 11.6453-3.8258zm-10.0084 53.9589a11.2814 11.2814 0 0 0 -8.5682 3.6954 13.9742 13.9742 0 0 0 .1635 18.608 11.3718 11.3718 0 0 0 8.47 3.7935 11.8565 11.8565 0 0 0 8.7643-3.7281 13.8691 13.8691 0 0 0 .0982-18.6734 11.8965 11.8965 0 0 0 -8.9278-3.6954z"/><path d="m195.478 116.3078a8.8229 8.8229 0 0 1 -8.4045-11.4994 30.9621 30.9621 0 0 1 7.7739-12.8662q9.0105-8.8809 23.13-8.8809a31.3663 31.3663 0 0 1 15.387 3.676 27.5465 27.5465 0 0 1 10.67 10.6051 27.8773 27.8773 0 0 1 4.0013 14.0858q0 8.5243-4.85 18.3474-4.8491 9.825-17.7375 23.227l-8.1913 8.6339a1.5915 1.5915 0 0 0 1.1546 2.6868h21.98a8.4255 8.4255 0 0 1 8.4255 8.4255 8.4255 8.4255 0 0 1 -8.4255 8.4255h-51.6835a6.19 6.19 0 0 1 -6.19-6.19 6.19 6.19 0 0 1 1.77-4.3338l27.8328-28.3833q10.7352-10.8646 14.281-17.469 3.5453-6.6026 3.5459-11.9388a12.2777 12.2777 0 0 0 -3.676-9.1412 12.1042 12.1042 0 0 0 -4.0162-2.6345 13.873 13.873 0 0 0 -17.3 6.4244 16.6468 16.6468 0 0 0 -1.0577 2.559 8.8787 8.8787 0 0 1 -8.4198 6.2407z"/><path d="m444.688 11h-377.376a56.3119 56.3119 0 0 0 -56.312 56.3119v377.3762a56.312 56.312 0 0 0 56.312 56.3119h377.376a56.312 56.312 0 0 0 56.312-56.3119v-377.3762a56.3119 56.3119 0 0 0 -56.312-56.3119zm19.792 413.67a39.81 39.81 0 0 1 -39.81 39.81h-337.3394a39.81 39.81 0 0 1 -39.81-39.81v-337.3394a39.81 39.81 0 0 1 39.81-39.81h337.3394a39.81 39.81 0 0 1 39.81 39.81z"/></g></svg>