<?xml version="1.0" encoding="UTF-8"?>
<svg xmlns="http://www.w3.org/2000/svg" viewBox="0 0 512 512" width="512" height="512"><g id="Layer_26" data-name="Layer 26"><path d="M400,8A104,104,0,1,0,504,112,104.121,104.121,0,0,0,400,8Zm0,192a88,88,0,1,1,88-88A88.1,88.1,0,0,1,400,200Z"/><path d="M276.875,163.631l-42.141-36.867A8,8,0,0,1,232,120.74V104h8a24.026,24.026,0,0,0,24-24V32A24.027,24.027,0,0,0,240,8H64A24.027,24.027,0,0,0,40,32V80a24.026,24.026,0,0,0,24,24h8V120.74a7.988,7.988,0,0,1-2.727,6.016L27.117,163.639A56,56,0,0,0,8,205.78V434.389a69.276,69.276,0,0,0,26.133,54.359,70.528,70.528,0,0,0,43.906,15.414h.188c36.945-.125,111.429-.156,148.211-.164A69.6,69.6,0,0,0,296,434.381V205.78A56.01,56.01,0,0,0,276.875,163.631ZM280,208V368H24V208ZM112,24h80V40H112ZM56,80V32a8.005,8.005,0,0,1,8-8H96V48a8,8,0,0,0,8,8h96a8,8,0,0,0,8-8V24h32a8.005,8.005,0,0,1,8,8V80a8.005,8.005,0,0,1-8,8H64A8.005,8.005,0,0,1,56,80Zm160,24v16H88V104ZM37.656,175.678l42.156-36.883A23.726,23.726,0,0,0,82.39,136H221.61A24.025,24.025,0,0,0,224.2,138.8l42.141,36.867A39.971,39.971,0,0,1,277.5,192H26.5A39.939,39.939,0,0,1,37.656,175.678Zm222.219,300.57A53.715,53.715,0,0,1,226.438,488c-36.8.008-111.313.039-148.258.164h-.149a54.47,54.47,0,0,1-33.906-11.914A53.333,53.333,0,0,1,24,434.389V384H280v50.383A53.349,53.349,0,0,1,259.875,476.248Z"/><path d="M104,352a32.032,32.032,0,0,0,32-32V307.311l34.062,34.062a36.283,36.283,0,0,0,51.313-51.312l-39.437-39.438a35.977,35.977,0,0,0-47.284-3.3A31.916,31.916,0,0,0,72,256v64A32.032,32.032,0,0,0,104,352Zm0-16a16.021,16.021,0,0,1-16-16V296h32v24A16.021,16.021,0,0,1,104,336Zm112-20.281a20.285,20.285,0,0,1-34.625,14.344L167.312,316,196,287.311l14.062,14.062A20.147,20.147,0,0,1,216,315.717ZM156.281,256a20.152,20.152,0,0,1,14.344,5.938L184.688,276,156,304.686l-14.062-14.063A20.285,20.285,0,0,1,156.281,256ZM104,240a16.021,16.021,0,0,1,16,16v24H88V256A16.021,16.021,0,0,1,104,240Z"/><path d="M56,432H40a40.047,40.047,0,0,0,40,40H96V456H80A24.026,24.026,0,0,1,56,432Z"/><rect x="40" y="399.998" width="16" height="16"/><path d="M352,72v88h16V112h32V96H368V80h32V64H360A8,8,0,0,0,352,72Z"/><path d="M456,128a8,8,0,0,0,8-8v-4a28,28,0,0,0-56,0v20a24.026,24.026,0,0,0,24,24h8a24.026,24.026,0,0,0,24-24H448a8.005,8.005,0,0,1-8,8h-8a8.005,8.005,0,0,1-8-8v-8Zm-20-24a12.011,12.011,0,0,1,11.312,8H424.688A12.011,12.011,0,0,1,436,104Z"/></g></svg>
