<?xml version="1.0" encoding="iso-8859-1"?>
<!-- Uploaded to: SVG Repo, www.svgrepo.com, Generator: SVG Repo Mixer Tools -->
<!DOCTYPE svg PUBLIC "-//W3C//DTD SVG 1.1//EN" "http://www.w3.org/Graphics/SVG/1.1/DTD/svg11.dtd">
<svg fill="#000000" height="800px" width="800px" version="1.1" id="Capa_1" xmlns="http://www.w3.org/2000/svg" xmlns:xlink="http://www.w3.org/1999/xlink" 
	 viewBox="0 0 57.983 57.983" xml:space="preserve">
<path d="M57.391,3.951c-0.499-0.61-1.236-0.96-2.022-0.96H33.983v1c0,8.271-6.729,15-15,15c-0.553,0-1-0.447-1-1s0.447-1,1-1
	c7.168,0,13-5.832,13-13v-1H14.262c-3.239,0-7.883,2.145-10.956,6.936c-3.679,5.735-6.131,16.771,2.999,36.798l-0.011,0.297
	c-0.017,0.516,0.171,1.003,0.528,1.372c0.356,0.368,0.835,0.571,1.347,0.571l0.11-0.004c2.481-0.143,9.644-1.035,13.703-6.289v11.32
	c0,0.553,0.447,1,1,1s1-0.447,1-1V39.013c0.069,0.001,0.144,0.001,0.221,0.001c0.258,0,0.52-0.016,0.779-0.023v15
	c0,0.553,0.447,1,1,1s1-0.447,1-1V38.874c8.511-0.778,17.249-5.246,19.086-15.854c6.479-4.293,10.473-9.977,11.864-16.909
	C58.085,5.345,57.888,4.558,57.391,3.951z M24.204,37.014c-0.032,0-0.055-0.001-0.086-0.001c0.439-1.732,1.998-3.022,3.865-3.022
	c0.553,0,1-0.447,1-1s-0.447-1-1-1c-2.527,0-4.69,1.573-5.573,3.789c-0.883-0.491-2.071-0.789-3.427-0.789c-0.553,0-1,0.447-1,1
	s0.447,1,1,1c0.655,0,1.201,0.089,1.649,0.213c-3.304,0.614-5.649,2.497-5.649,4.787c0,0.553,0.447,1,1,1c0.553,0,1-0.447,1-1
	c0-1.257,1.935-2.639,4.834-2.938c-2.853,6.639-10.814,7.729-13.52,7.903l0.072-2.16c0.024-0.132,0.051-0.267,0.08-0.404
	c0.015-0.068,0.032-0.139,0.048-0.209c0.015-0.066,0.03-0.133,0.047-0.2c0.025-0.098,0.052-0.199,0.08-0.3
	c0.01-0.038,0.021-0.076,0.031-0.114c0.035-0.123,0.073-0.248,0.114-0.375c0.004-0.012,0.008-0.025,0.012-0.037
	c1.32-4.079,5.463-9.941,18.027-13.178l-0.001-0.004c0.046-0.012,0.095-0.023,0.141-0.035l0.001,0.002
	c0.591-0.15,1.202-0.294,1.826-0.432l0.512-0.111c0.696-0.147,1.408-0.291,2.15-0.423l0,0c0.327-0.054,5.733-1,11.669-4.186
	c0.073-0.039,0.145-0.078,0.218-0.117c0.135-0.074,0.269-0.142,0.404-0.218C40.599,36.067,28.133,37.014,24.204,37.014z"/>
</svg>