<svg id="Capa_1" enable-background="new 0 0 512 512" height="512" viewBox="0 0 512 512" width="512" xmlns="http://www.w3.org/2000/svg"><g><path d="m136.969 378.554c.373.055.743.082 1.11.082 3.654 0 6.856-2.676 7.409-6.4l24.638-166.031c1.151-.314 2.294-.613 3.411-.877 21.552-5.088 45.835-4.384 70.225 2.04 6.13 1.614 12.182 3.484 18.589 5.464 17.195 5.314 34.934 10.796 53.62 10.796 1.434 0 2.874-.032 4.319-.1 8.062-.374 15.894-2.093 23.393-5.119l3.081 20.761c.607 4.097 4.423 6.921 8.52 6.318 4.098-.608 6.926-4.422 6.318-8.52l-12.299-82.884c5.305-3.338 8.848-9.229 8.848-15.945v-69.005c0-10.391-8.454-18.844-18.845-18.844h-1.846c-3.69-28.333-27.964-50.29-57.287-50.29h-48.347c-29.322 0-53.597 21.957-57.287 50.29h-1.846c-10.391 0-18.845 8.454-18.845 18.844v69.005c0 6.717 3.543 12.607 8.848 15.945l-32.046 215.949c-.607 4.098 2.222 7.912 6.319 8.521zm182.626-170.009c-17.67.821-35.532-4.703-52.815-10.044-6.273-1.939-12.762-3.943-19.197-5.639-25.867-6.812-51.761-7.709-75.081-2.658l4.93-33.22h157.138l6.83 46.026c-6.946 3.309-14.256 5.184-21.805 5.535zm-87.768-193.545h48.347c21.037 0 38.576 15.258 42.132 35.29h-132.61c3.554-20.032 21.094-35.29 42.131-35.29zm-62.978 54.134c0-2.12 1.725-3.844 3.845-3.844h8.843 148.927 8.843c2.12 0 3.845 1.725 3.845 3.844v69.005c0 2.12-1.725 3.844-3.845 3.844h-166.613c-2.12 0-3.845-1.725-3.845-3.844z"/><path d="m395.699 466.735-28.486-191.955c-.607-4.097-4.423-6.924-8.52-6.318-4.098.608-6.926 4.422-6.318 8.52l28.485 191.955c1.046 7.046-1.022 14.181-5.676 19.575-4.652 5.394-11.406 8.488-18.53 8.488h-201.31c-7.123 0-13.877-3.094-18.529-8.487-4.653-5.395-6.722-12.529-5.676-19.576l8.902-59.994c.607-4.098-2.221-7.912-6.318-8.52-4.09-.604-7.911 2.22-8.52 6.318l-8.902 59.994c-1.687 11.366 1.65 22.875 9.155 31.575 7.504 8.701 18.398 13.69 29.888 13.69h201.311c11.49 0 22.385-4.99 29.889-13.69 7.504-8.701 10.841-20.209 9.155-31.575z"/><path d="m200.884 267.889-22.133 169.253c-.537 4.107 2.356 7.872 6.464 8.409.33.043.658.064.982.064 3.709 0 6.933-2.751 7.427-6.528l22.133-169.253c.537-4.107-2.356-7.872-6.464-8.409-4.109-.541-7.872 2.357-8.409 6.464z"/><path d="m256 261.362c-4.143 0-7.5 3.358-7.5 7.5v169.253c0 4.142 3.357 7.5 7.5 7.5s7.5-3.358 7.5-7.5v-169.253c0-4.142-3.358-7.5-7.5-7.5z"/><path d="m302.707 261.425c-4.107.537-7.001 4.302-6.464 8.409l22.132 169.253c.494 3.777 3.718 6.528 7.427 6.528.324 0 .652-.021.982-.064 4.107-.537 7.001-4.302 6.464-8.409l-22.132-169.253c-.537-4.107-4.3-7.005-8.409-6.464z"/><path d="m220.596 122.57c7.998 5.534 16.492-7.2 8.32-12.47-8-5.517-16.496 7.214-8.32 12.47z"/><path d="m280.316 119.21c2.835 7.46 14.653 5.102 14.431-2.871-.414-11.797-18.578-8.209-14.431 2.871z"/><path d="m186.626 93.8c3.563 9.044 17.732 3.183 13.849-5.731-3.556-9.034-17.707-3.199-13.849 5.731z"/><path d="m249.117 93.8c3.559 9.045 17.717 3.189 13.849-5.731-3.563-9.046-17.731-3.185-13.849 5.731z"/><path d="m314.276 97.17c8.008 5.527 16.504-7.199 8.329-12.471-7.998-5.517-16.486 7.183-8.329 12.471z"/></g></svg>