<svg id="Capa_1" enable-background="new 0 0 512 512" height="512" viewBox="0 0 512 512" width="512" xmlns="http://www.w3.org/2000/svg"><g><g><path d="m181.06 40.094c-41.331-53.354-109.181-53.344-150.504 0-65.194 84.156-18.374 228.14 75.252 228.14 93.582-.001 140.491-143.926 75.252-228.14zm-75.252 213.155c-49.932 0-90.554-53.416-90.554-119.072s40.622-119.073 90.554-119.073 90.554 53.416 90.554 119.072-40.622 119.073-90.554 119.073z"/><path d="m58.035 66.07 12.45 8.339c36.913-55.118 87.455-4.161 87.455 59.767 0 59.632-46.197 113.328-84.34 64.093-21.703-28.016-26.653-75.169-9.985-111.508l-13.621-6.247c-32.109 70.014 7.625 152.063 55.815 152.063 21.393 0 36.784-15.744 44.054-25.13 14.656-18.919 23.061-45.625 23.061-73.27-.001-81.4-69.863-135.325-114.889-68.107z"/><path d="m257.844 271.391c-105.609 13.41-174.312 148.326-108.108 214.531 66.316 66.312 201.138-2.63 214.531-108.109 8.499-66.942-39.48-114.929-106.423-106.422zm50.715 183.77c-74.45 74.45-180.64 43.598-168.904-48.829 8.12-63.956 70.977-120.941 133.24-120.941 84.536.001 104.634 100.8 35.664 169.77z"/><path d="m200.624 340.242 10.207 10.971c16.641-15.483 37.14-25.754 56.242-28.179 61.446-7.8 56.786 62.487 14.316 104.957-42.166 42.164-112.804 47.466-104.957-14.317 2.27-17.876 11.153-36.594 25.014-52.704l-11.359-9.773c-15.756 18.313-25.884 39.831-28.52 60.59-9.487 74.714 75.181 82.036 130.418 26.801 19.548-19.549 32.488-44.377 35.503-68.116 9.286-73.13-71.534-81.707-126.864-30.23z"/><path d="m510.774 134.14c-4.017-31.637-20.038-62.87-45.111-87.943-47.492-47.491-124.391-65.193-169.419-20.166-20.194 20.194-29.053 49.13-24.946 81.477 4.017 31.637 20.038 62.87 45.111 87.943 47.618 47.616 124.48 65.103 169.42 20.166 20.194-20.193 29.053-49.129 24.945-81.477zm-35.54 70.881c-36.527 36.528-103.486 24.578-148.229-20.166-46.426-46.426-55.473-112.922-20.165-148.228 36.746-36.747 103.774-24.289 148.228 20.166 46.426 46.426 55.472 112.922 20.166 148.228z"/><path d="m413.581 188.919c-20.509-2.604-42.162-13.988-59.407-31.232-42.014-42.014-47.598-112.81 14.316-104.957 15.699 1.993 32.477 9.304 47.245 20.585l9.096-11.908c-54.987-42.005-125.421-29.51-116.755 38.76 3.015 23.74 15.955 48.568 35.503 68.116 19.549 19.548 44.376 32.488 68.115 35.501 17.533 2.227 36.273-.731 48.922-13.381 23.051-23.05 15.019-64.809-3.747-94.206l-12.63 8.064c26.075 40.847 21.659 91.318-30.658 84.658z"/><path d="m435.941 92.834 11.583-9.506c-3.225-3.93-6.774-7.802-10.559-11.469l-10.427 10.762c3.205 3.108 6.383 6.536 9.403 10.213z"/></g><g><g><g><g><g><g><path d="m122.972 112.781h15.011v14.985h-15.011z"/></g></g></g></g></g><g><g><g><g><g><path d="m105.808 80.589h15.011v14.985h-15.011z"/></g></g></g></g></g></g></g></svg>