<svg id="Outline" viewBox="0 0 128 128" xmlns="http://www.w3.org/2000/svg"><path d="m90.048 116.284c-3.564 0-6.317-1.572-8.88-4.857-2.517-1.206-4.137-4.567-4.6-7.318-.437-2.619.087-4.812 1.44-6.078.839-1.538.3-3.87-1.319-5.634a7.136 7.136 0 0 0 -8.24-1.474c-1.664.752-7.24.752-8.9 0a7.136 7.136 0 0 0 -8.24 1.473c-1.623 1.765-2.159 4.1-1.32 5.635 1.353 1.266 1.877 3.459 1.44 6.078-.459 2.751-2.079 6.112-4.6 7.318-3.986 5.107-8.429 6.074-15.667 3.43-2.646-.165-7.87-1.68-10.316-6.458a8.247 8.247 0 0 0 -2.148-2.644c-6.198-5.055-9.773-11.017-10.325-17.24a7.705 7.705 0 0 0 -.729-2.7c-3.914-8.043-5.044-14.944-3.798-23.08a8.311 8.311 0 0 0 .031-2.566c-.552-3.569-1.477-12.659 1.842-20.069a9.3 9.3 0 0 0 .742-3c.685-7.439 7.272-14.951 14.1-16.078 8.947-1.482 12.083 3.334 13.967 8.237a5.745 5.745 0 0 0 1.606 2.282 14.659 14.659 0 0 1 5.129 8.031 5.513 5.513 0 0 0 1.423 2.6 44.406 44.406 0 0 1 6.506 8.585c.61.96 1.265 1.989 2.01 3.119 2.519 3.815 6.467 5.517 12.8 5.517s10.281-1.7 12.8-5.517c.745-1.13 1.4-2.159 2.01-3.119a44.406 44.406 0 0 1 6.506-8.585 5.515 5.515 0 0 0 1.423-2.6 14.652 14.652 0 0 1 5.129-8.031 5.755 5.755 0 0 0 1.606-2.283c1.884-4.9 5.016-9.721 13.967-8.237 6.826 1.127 13.413 8.639 14.1 16.078a9.284 9.284 0 0 0 .742 3c3.321 7.416 2.394 16.509 1.842 20.074a8.317 8.317 0 0 0 .031 2.567c1.251 8.136.116 15.037-3.8 23.076a7.705 7.705 0 0 0 -.729 2.7c-.552 6.223-4.124 12.185-10.328 17.24a8.24 8.24 0 0 0 -2.148 2.645c-2.446 4.777-7.67 6.292-10.316 6.457a20.07 20.07 0 0 1 -6.789 1.426zm-18.423-29.055a9.823 9.823 0 0 1 7.275 3.138c2.628 2.857 3.263 6.739 1.544 9.441a1.541 1.541 0 0 1 -.323.361c-.624.5-.856 1.857-.591 3.446.4 2.377 1.788 4.7 3.1 5.178a1.492 1.492 0 0 1 .687.508c3.283 4.37 6.367 5.015 12.69 2.664a1.471 1.471 0 0 1 .477-.094c1.939-.06 6.1-1.149 7.995-4.839a11.237 11.237 0 0 1 2.923-3.6c3.879-3.16 8.63-8.359 9.235-15.18a10.693 10.693 0 0 1 1.02-3.751c3.674-7.547 4.7-13.72 3.53-21.308a11.411 11.411 0 0 1 -.031-3.481c1.066-6.877.462-13.751-1.615-18.388a12.448 12.448 0 0 1 -.992-3.95c-.561-6.1-6.089-12.484-11.6-13.394-6.479-1.069-8.821 1.52-10.68 6.354a8.749 8.749 0 0 1 -2.447 3.48 11.573 11.573 0 0 0 -4.175 6.478 8.509 8.509 0 0 1 -2.219 4.01 41.48 41.48 0 0 0 -6.09 8.066c-.619.974-1.282 2.019-2.038 3.163-3.092 4.684-7.955 6.865-15.3 6.865s-12.212-2.181-15.3-6.865c-.756-1.144-1.419-2.189-2.038-3.163a41.48 41.48 0 0 0 -6.09-8.066 8.508 8.508 0 0 1 -2.219-4.011 11.576 11.576 0 0 0 -4.176-6.478 8.746 8.746 0 0 1 -2.446-3.479c-1.859-4.835-4.2-7.423-10.679-6.354-5.51.91-11.038 7.294-11.6 13.394a12.461 12.461 0 0 1 -.992 3.951c-2.08 4.633-2.684 11.507-1.618 18.384a11.411 11.411 0 0 1 -.031 3.481c-1.166 7.588-.144 13.761 3.53 21.308a10.693 10.693 0 0 1 1.02 3.751c.6 6.821 5.356 12.02 9.235 15.18a11.244 11.244 0 0 1 2.923 3.6c1.89 3.691 6.056 4.78 8 4.84a1.471 1.471 0 0 1 .477.094c6.322 2.351 9.406 1.7 12.69-2.664a1.492 1.492 0 0 1 .687-.508c1.313-.479 2.7-2.8 3.1-5.178.265-1.589.033-2.942-.591-3.446a1.541 1.541 0 0 1 -.323-.361c-1.719-2.7-1.084-6.584 1.544-9.442a10.132 10.132 0 0 1 11.684-2.178 16.866 16.866 0 0 0 6.435 0 10.711 10.711 0 0 1 4.403-.957z"/></svg>